<?xml version="1.0" encoding="UTF-8"?>
<svg width="60px" height="60px" viewBox="0 0 60 60" version="1.1" xmlns="http://www.w3.org/2000/svg" xmlns:xlink="http://www.w3.org/1999/xlink">
    <title>Bitcoin</title>
    <g id="DT-V2" stroke="none" stroke-width="1" fill="none" fill-rule="evenodd">
        <g id="Bitcoin" fill-rule="nonzero">
            <path d="M59.0951446,37.2573678 C55.0883102,53.3287672 38.8106629,63.1096055 22.7373885,59.1018337 C6.67067658,55.0949993 -3.11016166,38.8164145 0.898547658,22.7459526 C4.90350701,6.67267823 21.1811543,-3.1090975 37.2497412,0.897736834 C53.3220781,4.90457117 63.1019789,21.1850309 59.0951446,37.2573678 Z" id="Path" fill="#F7931A"></path>
            <path d="M43.2234306,25.7262349 C43.8206121,21.7344004 40.7812679,19.5884847 36.6253726,18.1569367 L37.9734839,12.7494916 L34.6819548,11.9291874 L33.3694681,17.194134 C32.5041644,16.9785111 31.6154234,16.7750757 30.7323074,16.5735152 L32.054169,11.2738815 L28.7645149,10.4535774 L27.4154661,15.8591475 C26.6992233,15.6960242 25.9961055,15.5347758 25.3136124,15.36509 L25.3173623,15.3482152 L20.7780334,14.2147892 L19.9024173,17.7303785 C19.9024173,17.7303785 22.34458,18.2900603 22.293018,18.3247475 C23.6261295,18.6575566 23.8670646,19.5397351 23.8267525,20.239103 L22.2911431,26.399353 C22.3830171,26.4227903 22.5020784,26.45654 22.6333271,26.5090394 C22.5236407,26.4818522 22.4064544,26.4518525 22.2855181,26.4227903 L20.13304,35.0523902 C19.9699166,35.4573861 19.5564833,36.0648799 18.6246178,35.8342573 C18.6574299,35.8820693 16.232142,35.2370758 16.232142,35.2370758 L14.5980961,39.0048501 L18.8814902,40.0726518 C19.6783571,40.2723372 20.4592866,40.4813976 21.2280288,40.6782706 L19.8658552,46.1475901 L23.1536343,46.9678943 L24.5026831,41.5566992 C25.400799,41.8004467 26.2726652,42.0254445 27.1257815,42.2373173 L25.7814201,47.6232001 L29.0729492,48.4435043 L30.4351229,42.9844972 C36.0478784,44.0466739 40.2684606,43.6182408 42.0450051,38.5417298 C43.4765531,34.4542713 41.9737558,32.0964827 39.0206608,30.5589983 C41.171264,30.0630659 42.7912475,28.6483927 43.2234306,25.7262349 L43.2234306,25.7262349 Z M35.7028819,36.2720653 C34.6857048,40.3595239 27.8035871,38.1498588 25.5723598,37.5958019 L27.3798414,30.3499379 C29.6110688,30.9068073 36.7659962,32.0092961 35.7028819,36.2720653 Z M36.7209966,25.667173 C35.792881,29.3852602 30.0648142,27.4962169 28.206708,27.0330966 L29.8454414,20.4612883 C31.7035475,20.9244086 37.6875493,21.7887748 36.7209966,25.667173 L36.7209966,25.667173 Z" id="Shape" fill="#FFFFFF"></path>
        </g>
    </g>
</svg>