<?xml version="1.0" encoding="UTF-8"?>
<svg width="60px" height="60px" viewBox="0 0 60 60" version="1.1" xmlns="http://www.w3.org/2000/svg" xmlns:xlink="http://www.w3.org/1999/xlink">
    <title>Ripple</title>
    <defs>
        <circle id="path-1" cx="30" cy="30" r="30"></circle>
        <linearGradient x1="0%" y1="-0.000130229744%" x2="100%" y2="-0.000130229744%" id="linearGradient-3">
            <stop stop-color="#11AAE2" offset="0%"></stop>
            <stop stop-color="#0880B7" offset="59%"></stop>
            <stop stop-color="#016197" offset="100%"></stop>
        </linearGradient>
    </defs>
    <g id="DT-V2" stroke="none" stroke-width="1" fill="none" fill-rule="evenodd">
        <g id="Ripple">
            <mask id="mask-2" fill="white">
                <use xlink:href="#path-1"></use>
            </mask>
            <use id="Mask" fill="#D8D8D8" xlink:href="#path-1"></use>
            <g id="ripple-2" mask="url(#mask-2)" fill="url(#linearGradient-3)" fill-rule="nonzero">
                <g transform="translate(8.000000, 10.000000)" id="Path">
                    <path d="M24.4586,1.07614931 C21.8304,2.62015132 20.2742,5.40835495 20.2742,8.34855878 C20.2742,9.89256079 20.8942,11.4485628 21.6704,12.8367646 C22.2904,14.0767662 22.5944,16.2409691 20.4304,17.3249705 C18.8862,18.2489717 16.866,17.6329709 15.942,16.0849689 C15.0178,14.8449672 13.9338,13.6049656 12.5376,12.6807644 C9.9094,11.1367624 6.809,11.1367624 4.1806,12.6807644 C1.5522,14.2247664 0,17.0199701 0,19.9609739 C0,22.9019777 1.5442,25.6891814 4.18,27.2373834 C6.8082,28.7813854 9.9086,28.7813854 12.537,27.2373834 C13.9332,26.4613824 15.017,25.2293808 15.7854,23.8331789 C16.4054,22.7491775 18.1096,21.3531757 20.2738,22.5931773 C21.818,23.5171785 22.282,25.5373812 21.5138,27.0813832 C20.7378,28.477385 20.2738,30.025587 20.2738,31.569589 C20.2738,34.5137929 21.818,37.2977965 24.4582,38.8419985 C27.0864,40.3860005 30.1868,40.3860005 32.8152,38.8419985 C35.4436,37.2979965 37,34.5097929 37,31.569589 C37,28.6293852 35.4518,25.8413816 32.8156,24.2931795 C31.4194,23.5171785 29.8712,23.2091781 28.171,23.2091781 C26.7748,23.2091781 24.9226,22.2851769 24.9226,19.9609739 C24.9226,18.1009715 26.3188,16.7127697 28.171,16.7127697 C29.7152,16.7127697 31.4194,16.4047693 32.8156,15.6287683 C35.4438,14.0847663 37,11.2965626 37,8.35655879 C37,5.41655496 35.4518,2.62835133 32.8156,1.08414932 C31.5756,0.308148309 30.0312,0 28.6356,0 C27.2474,-0.00785210206 25.6912,0.308148309 24.4592,1.07614931"></path>
                </g>
            </g>
        </g>
    </g>
</svg>