<?xml version="1.0" encoding="UTF-8"?>
<svg width="153px" height="48px" viewBox="0 0 153 48" version="1.1" xmlns="http://www.w3.org/2000/svg" xmlns:xlink="http://www.w3.org/1999/xlink">
    <title>Default/✪ Default</title>
    <g id="DT-V2-Copy" stroke="none" stroke-width="1" fill="none" fill-rule="evenodd">
        <g id="Login-00" transform="translate(-644.000000, -99.000000)">
            <g id="Group" transform="translate(644.000000, 99.000000)">
                <g>
                    <polygon id="symbol-container" fill="#B72F2A" points="0 48 48.001 48 48.001 0 0 0"></polygon>
                    <polygon id="currency-symbol" fill="#FFFFFF" points="33.0259 15.4951 33.0259 10.9441 18.7069 10.9441 18.7069 20.7091 18.3179 20.7091 15.6169 20.7091 15.6169 23.8151 16.4729 23.8151 18.7069 23.8151 18.7069 26.2721 18.2279 26.2721 15.6169 26.2721 15.6169 29.3831 16.3799 29.3831 18.7069 29.3831 18.7069 38.9421 24.2299 38.9421 24.2299 29.3831 29.1319 29.3831 30.5199 26.2721 24.2299 26.2721 24.2299 25.2291 24.2299 23.8151 31.6429 23.8151 33.0259 20.7091 24.2299 20.7091 24.2299 15.4951"></polygon>
                </g>
                <g transform="translate(56.517261, 10.284899)" fill="#006193" id="Font-Color">
                    <path d="M2.2446,37.6014 L3.5476,37.6014 L3.5476,32.2374 L2.2446,32.2374 L2.2446,37.6014 Z M8.2828,37.6009 L6.9798,37.6009 L6.9798,32.2369 L8.2828,32.2369 L10.2368,35.2529 L10.2368,32.2369 L11.5388,32.2369 L11.5388,37.6009 L10.2368,37.6009 L8.2828,34.5449 L8.2828,37.6009 Z M17.0137,37.6009 L15.7107,37.6009 L15.7107,33.2899 L14.4717,33.2899 L14.4717,32.2369 L18.2437,32.2369 L18.2437,33.2899 L17.0137,33.2899 L17.0137,37.6009 Z M22.3594,34.3841 L24.1284,34.3841 L24.1284,35.4381 L22.3594,35.4381 L22.3594,36.5481 L24.1284,36.5481 L24.1284,37.6011 L21.0564,37.6011 L21.0564,32.2371 L24.1284,32.2371 L24.1284,33.2901 L22.3594,33.2901 L22.3594,34.3841 Z M29.1206,34.7948 C29.6596,34.7948 29.9726,34.5218 29.9726,34.0558 C29.9726,33.6038 29.6676,33.3068 29.2006,33.3068 L28.7026,33.3068 L28.7026,34.7948 L29.1206,34.7948 Z M28.7026,37.6008 L27.3996,37.6008 L27.3996,32.2368 L29.1366,32.2368 C29.8446,32.2368 30.3586,32.3658 30.7126,32.6398 C31.0826,32.9288 31.2926,33.4128 31.2926,33.9988 C31.2926,34.8108 30.9466,35.3568 30.2546,35.6308 L31.4366,37.6008 L29.8766,37.6008 L28.7026,35.5268 L28.7026,37.6008 Z M35.9537,37.6009 L34.6517,37.6009 L34.6517,32.2369 L35.9537,32.2369 L37.9087,35.2529 L37.9087,32.2369 L39.2107,32.2369 L39.2107,37.6009 L37.9087,37.6009 L35.9537,34.5449 L35.9537,37.6009 Z M44.6587,33.7738 L44.0317,35.7748 L45.2857,35.7748 L44.6587,33.7738 Z M43.7097,36.8288 L43.4767,37.6008 L42.0857,37.6008 L43.8547,32.2368 L45.5117,32.2368 L47.2727,37.6008 L45.8417,37.6008 L45.6077,36.8288 L43.7097,36.8288 Z M51.9922,37.6009 L50.6892,37.6009 L50.6892,33.2899 L49.4502,33.2899 L49.4502,32.2369 L53.2222,32.2369 L53.2222,33.2899 L51.9922,33.2899 L51.9922,37.6009 Z M56.6786,37.6014 L57.9816,37.6014 L57.9816,32.2374 L56.6786,32.2374 L56.6786,37.6014 Z M62.3199,34.9237 C62.3199,35.8077 62.9869,36.4997 63.8399,36.4997 C64.6749,36.4997 65.3519,35.8077 65.3519,34.9477 C65.3519,34.0307 64.7079,33.3407 63.8479,33.3407 C62.9709,33.3407 62.3199,34.0147 62.3199,34.9237 M66.6699,34.9307 C66.6699,36.4677 65.4159,37.7057 63.8639,37.7057 C62.2629,37.7057 60.9949,36.4837 60.9949,34.9397 C60.9949,34.1597 61.3079,33.4347 61.8939,32.8807 C62.4079,32.3977 63.1079,32.1327 63.8959,32.1327 C65.4809,32.1327 66.6699,33.3317 66.6699,34.9307 M70.8272,37.6009 L69.5242,37.6009 L69.5242,32.2369 L70.8272,32.2369 L72.7812,35.2529 L72.7812,32.2369 L74.0842,32.2369 L74.0842,37.6009 L72.7812,37.6009 L70.8272,34.5449 L70.8272,37.6009 Z M79.5909,33.7738 L78.9639,35.7748 L80.2169,35.7748 L79.5909,33.7738 Z M78.6409,36.8288 L78.4079,37.6008 L77.0169,37.6008 L78.7859,32.2368 L80.4429,32.2368 L82.2039,37.6008 L80.7729,37.6008 L80.5389,36.8288 L78.6409,36.8288 Z M88.1685,36.5482 L88.1685,37.6012 L85.1205,37.6012 L85.1205,32.2372 L86.4245,32.2372 L86.4245,36.5482 L88.1685,36.5482 Z" id="International"></path>
                    <path d="M84.464,8.782 L87.705,18.871 L87.762,18.871 L90.998,8.782 L95.693,8.782 L88.309,28.374 L83.84,28.374 L85.506,24.035 L79.778,8.782 L84.464,8.782 Z M48.399,8.368 C53.004,8.368 56.208,11.514 56.208,16.44 L56.208,17.627 L45.045,17.627 C45.221,19.403 46.318,21.19 48.606,21.19 C49.917,21.19 51.072,20.564 51.665,19.377 L55.823,19.699 C54.785,22.821 51.989,24.452 48.399,24.452 C43.793,24.452 40.59,21.307 40.59,16.44 C40.59,11.514 43.793,8.368 48.399,8.368 Z M39.12,0.539 L39.12,24.035 L35.024,24.035 L35.024,21.899 L34.965,21.899 C33.747,23.708 31.966,24.452 30.004,24.452 C25.759,24.452 22.877,20.624 22.877,16.38 C22.877,12.139 25.555,8.368 29.943,8.368 C31.906,8.368 33.36,8.99 34.787,10.861 L34.848,10.861 L34.848,0.539 L39.12,0.539 Z M76.285,4.011 L76.285,8.782 L78.537,8.782 L78.537,12.044 L76.285,12.044 L76.285,19.763 C76.285,20.446 76.579,20.772 77.678,20.772 C78.039,20.772 78.277,20.742 78.537,20.682 L78.537,20.682 L78.537,24.035 C77.857,24.122 77.177,24.213 76.49,24.213 C73.699,24.213 72.006,23.53 72.006,20.237 L72.006,20.237 L72.006,12.044 L70.05,12.044 L70.05,8.782 L72.006,8.782 L72.006,4.011 L76.285,4.011 Z M14.478,0.6 L14.478,4.477 L6.964,4.477 L6.964,8.933 L14.478,8.933 L13.296,11.59 L6.964,11.59 L6.964,13.14 L12.603,13.14 L11.421,15.796 L6.964,15.796 L6.964,24.122 L2.245,24.122 L2.244,15.796 L-8.70414851e-13,15.796 L-8.70414851e-13,13.14 L2.244,13.14 L2.244,11.59 L-8.70414851e-13,11.59 L-8.70414851e-13,8.933 L2.244,8.933 L2.244,0.6 L14.478,0.6 Z M21.243,8.896 L21.243,24.067 L16.52,24.067 L16.52,8.896 L21.243,8.896 Z M62.037,0.539 L62.037,24.035 L57.757,24.035 L57.757,0.539 L62.037,0.539 Z M68.402,8.783 L68.402,24.035 L64.121,24.035 L64.121,8.783 L68.402,8.783 Z M31.075,11.992 C28.613,11.992 27.333,14.187 27.333,16.501 C27.333,18.903 28.67,21.011 31.193,21.011 C33.627,21.011 34.994,18.994 34.994,16.44 C34.994,14.15 33.747,11.992 31.075,11.992 Z M48.606,11.635 C46.379,11.635 45.28,13.179 45.045,14.897 L51.937,14.897 C51.783,13.413 50.655,11.635 48.606,11.635 Z M18.879,1.77635684e-15 C20.157,1.77635684e-15 21.37,1.097 21.37,2.463 C21.37,3.764 20.248,4.981 18.879,4.981 C17.455,4.981 16.386,3.706 16.386,2.523 C16.386,1.271 17.455,1.77635684e-15 18.879,1.77635684e-15 Z M66.262,1.77635684e-15 C67.538,1.77635684e-15 68.753,1.097 68.753,2.463 C68.753,3.764 67.628,4.981 66.262,4.981 C64.835,4.981 63.766,3.706 63.766,2.523 C63.766,1.271 64.835,1.77635684e-15 66.262,1.77635684e-15 Z" id="Fidelity-word-mark"></path>
                </g>
            </g>
        </g>
    </g>
</svg>