<?xml version="1.0" encoding="UTF-8"?>
<svg width="24px" height="24px" viewBox="0 0 24 24" version="1.1" xmlns="http://www.w3.org/2000/svg" xmlns:xlink="http://www.w3.org/1999/xlink">
    <title>icon/main-nav/account</title>
    <g id="DT-V2" stroke="none" stroke-width="1" fill="none" fill-rule="evenodd" stroke-linecap="round" stroke-linejoin="round">
        <g id="Group" stroke="#000000" stroke-width="1.5">
            <g id="Stroke" transform="translate(0.500000, 0.500000)">
                <path d="M8.50000003,11.5 L13,11.5 M11.5,7.00000002 L11.5,5.50000002 M11.5,16.0000001 L11.5,17.5000001 M13,7.00000002 C14.2426407,7.00000002 15.2500001,8.00735934 15.2500001,9.25000003 C15.2500001,10.4926407 14.2426407,11.5 13,11.5 C14.2426407,11.5 15.2500001,12.5073594 15.2500001,13.7500001 C15.2500001,14.9926407 14.2426407,16 13,16 L8.50000003,16 L8.50000003,7.00000002 L13,7.00000002 Z M11.5,22.75 C17.7132035,22.75 22.75,17.7132035 22.75,11.5 C22.75,5.28679661 17.7132035,0.250000044 11.5,0.250000044 C5.28679661,0.250000044 0.250000044,5.28679661 0.250000044,11.5 C0.250000044,17.7132035 5.28679661,22.75 11.5,22.75 Z" id="Adjust-Stroke-Width"></path>
            </g>
        </g>
    </g>
</svg>