<?xml version="1.0" encoding="UTF-8"?>
<svg width="24px" height="20px" viewBox="0 0 24 20" version="1.1" xmlns="http://www.w3.org/2000/svg" xmlns:xlink="http://www.w3.org/1999/xlink">
    <title>Icon Copy</title>
    <g id="DT-V2-Spec" stroke="none" stroke-width="1" fill="none" fill-rule="evenodd" stroke-linecap="round" stroke-linejoin="round">
        <g id="Login-00" transform="translate(-1085.000000, -506.000000)" stroke="#20242B" stroke-width="1.5">
            <g id="✪-Default-Copy" transform="translate(504.000000, 453.000000)">
                <g id="Group" transform="translate(581.000000, 51.000000)">
                    <g id="Stroke" transform="translate(0.751637, 3.000000)">
                        <path d="M2.03136252,18 L20.7813626,-5.32907052e-14 M8.21236255,16.0510001 C9.19517711,16.3562276 10.2192711,16.5076828 11.2483626,16.5000001 C15.3483626,16.5690001 19.5063626,13.6870001 22.0723626,10.863 C22.6421793,10.2303973 22.6421793,9.26960278 22.0723626,8.63700004 C21.1427729,7.6172104 20.1129177,6.69355694 18.9983626,5.88000002 M13.6613626,3.28200001 C12.8723161,3.08564829 12.0614217,2.99088152 11.2483626,3.00000001 C7.21736254,2.93300001 3.04836253,5.75200002 0.427362514,8.63500004 C-0.142454171,9.26760278 -0.142454171,10.2283973 0.427362514,10.861 C1.22428705,11.7333975 2.09410013,12.5363019 3.02736253,13.2610001 M7.49836241,9.75000004 C7.4980972,8.75535688 7.89310014,7.80137552 8.59641909,7.09805657 C9.29973804,6.39473762 10.2537194,5.99973468 11.2483626,5.99999989 M14.9983627,9.74900004 L14.9983627,9.74900004 C14.9986278,10.7437351 14.6036568,11.6978192 13.9003666,12.401297 C13.1970764,13.1047747 12.2430977,13.5000001 11.2483626,13.5000001" id="Adjust-Stroke-Width"></path>
                    </g>
                </g>
            </g>
        </g>
    </g>
</svg>