<?xml version="1.0" encoding="UTF-8"?>
<svg width="24px" height="16px" viewBox="0 0 24 16" version="1.1" xmlns="http://www.w3.org/2000/svg" xmlns:xlink="http://www.w3.org/1999/xlink">
    <title>Icon Copy 2</title>
    <g id="DT-V2-Spec" stroke="none" stroke-width="1" fill="none" fill-rule="evenodd" stroke-linecap="round" stroke-linejoin="round">
        <g id="Login-00" transform="translate(-1139.000000, -508.000000)" stroke="#20242B" stroke-width="1.5">
            <g id="✪-Default-Copy" transform="translate(504.000000, 453.000000)">
                <g id="Group" transform="translate(635.000000, 51.000000)">
                    <g id="Stroke" transform="translate(0.751637, 5.249793)">
                        <path d="M11.2483626,0.00120673089 C7.21736254,-0.0667932694 3.04836253,2.75020674 0.427362514,5.63520675 C-0.142454171,6.2678095 -0.142454171,7.22860402 0.427362514,7.86120676 C2.99136253,10.6852068 7.14836254,13.5672068 11.2483626,13.4982068 C15.3483626,13.5672068 19.5063626,10.6852068 22.0723626,7.86120676 C22.6421793,7.22860402 22.6421793,6.2678095 22.0723626,5.63520675 C19.4483626,2.75020674 15.2793626,-0.0667932694 11.2483626,0.00120673089 Z M14.9983627,6.75020676 C14.9978103,8.82114431 13.3186337,10.4995749 11.2476961,10.4992066 C9.17675847,10.4988386 7.49817866,8.81981114 7.49836269,6.74887351 C7.49854673,4.67793589 9.17742493,2.99920661 11.2483626,2.99920661 C12.2431791,2.99894125 13.1973121,3.39408144 13.9006598,4.09761673 C14.6040075,4.80115202 14.9988933,5.75539037 14.9983627,6.75020676 L14.9983627,6.75020676 Z" id="Adjust-Stroke-Width"></path>
                    </g>
                </g>
            </g>
        </g>
    </g>
</svg>