<?xml version="1.0" encoding="UTF-8"?>
<svg width="24px" height="24px" viewBox="0 0 24 24" version="1.1" xmlns="http://www.w3.org/2000/svg" xmlns:xlink="http://www.w3.org/1999/xlink">
    <title>icon/main-nav/wallet</title>
    <g id="DT-V2" stroke="none" stroke-width="1" fill="none" fill-rule="evenodd" stroke-linecap="round" stroke-linejoin="round">
        <g id="Group" stroke="#000000" stroke-width="1.5">
            <g id="Stroke" transform="translate(0.750000, 1.500000)">
                <path d="M21,16.5 L21,19.5 C21,20.3284272 20.3284272,21 19.5,21 L2.25000001,21 C1.00735932,21 -2.48689958e-14,19.9926408 -2.48689958e-14,18.7500001 L-2.48689958e-14,2.25000001 C-2.48689958e-14,1.00735932 1.00735932,-1.42108547e-14 2.25000001,-1.42108547e-14 L18,-1.42108547e-14 C18.3978248,-1.42108547e-14 18.7793557,0.158035261 19.0606603,0.43933983 C19.3419648,0.720644399 19.5,1.10217527 19.5,1.5 L19.5,3.75000002 M21.0000001,16.5 C21.8284272,16.5 22.5000001,15.8284272 22.5000001,15 L22.5000001,10.5 C22.5000001,9.67157292 21.8284272,9.00000004 21.0000001,9.00000004 L17.2500001,9.00000004 C15.1789323,9.00000004 13.5000001,10.6789322 13.5000001,12.7500001 C13.5000001,14.8210679 15.1789323,16.5 17.2500001,16.5 L21.0000001,16.5 Z M17.2500001,12.3750001 C17.4571069,12.3750001 17.6250001,12.5428933 17.6250001,12.7500001 C17.6250001,12.9571068 17.4571069,13.1250001 17.2500001,13.1250001 C17.0428933,13.1250001 16.8750001,12.9571068 16.8750001,12.7500001 C16.8750001,12.5428933 17.0428933,12.3750001 17.2500001,12.3750001 M21.0000001,9.00000004 L21.0000001,5.25000002 C21.0000001,4.42157289 20.3284272,3.75000002 19.5000001,3.75000002 L4.87500002,3.75000002 C4.21096013,3.78122527 3.58621735,3.43479107 3.26100001,2.85500001" id="Adjust-Stroke-Width"></path>
            </g>
        </g>
    </g>
</svg>