<?xml version="1.0" encoding="UTF-8"?>
<svg width="24px" height="25px" viewBox="0 0 24 25" version="1.1" xmlns="http://www.w3.org/2000/svg" xmlns:xlink="http://www.w3.org/1999/xlink">
    <title>Business Finance/performance-increase-1 Copy 2</title>
    <g id="DT-V2-Spec" stroke="none" stroke-width="1" fill="none" fill-rule="evenodd" stroke-linecap="round" stroke-linejoin="round">
        <g id="Group" transform="translate(0.000000, 0.757359)" stroke="#20242B" stroke-width="1.5">
            <g id="Stroke" transform="translate(0.750000, 0.750000)">
                <path d="M22.5,22.5000001 L3.19744231e-14,22.5000001 M17.2500001,16.5000001 L20.2500001,16.5000001 C20.6642136,16.5000001 21.0000001,16.8357865 21.0000001,17.2500001 L21.0000001,22.5000001 L16.5000001,22.5000001 L16.5000001,17.2500001 C16.5000001,16.8357865 16.8357865,16.5000001 17.2500001,16.5000001 Z M9.75000004,9.00000004 L12.7500001,9.00000004 C13.1642136,9.00000004 13.5,9.33578648 13.5,9.75000004 L13.5,22.5 L9.00000004,22.5 L9.00000004,9.75000004 C9.00000004,9.33578648 9.33578648,9.00000004 9.75000004,9.00000004 Z M2.25000001,12.0000001 L5.25000002,12.0000001 C5.66421359,12.0000001 6.00000001,12.3357865 6.00000001,12.7500001 L6.00000001,22.5000001 L1.50000001,22.5000001 L1.50000001,12.7500001 C1.50000001,12.3357865 1.83578645,12.0000001 2.25000001,12.0000001 Z M22.5000001,6.00300003 L22.5000001,10.503 L18.0000001,10.503 M22.5,10.503 L17.4500001,5.45000002 C16.8648956,4.86474082 16.0056415,4.64810279 15.2130001,4.88600002 L9.50400004,6.41500003 C8.72783824,6.62215802 7.90010217,6.39998025 7.33200003,5.83200002 L1.50000001,4.17443857e-14" id="Adjust-Stroke-Width"></path>
            </g>
        </g>
    </g>
</svg>