<?xml version="1.0" encoding="UTF-8"?>
<svg width="24px" height="25px" viewBox="0 0 24 25" version="1.1" xmlns="http://www.w3.org/2000/svg" xmlns:xlink="http://www.w3.org/1999/xlink">
    <title>Business Finance/performance-increase-1 Copy</title>
    <g id="DT-V2-Spec" stroke="none" stroke-width="1" fill="none" fill-rule="evenodd" stroke-linecap="round" stroke-linejoin="round">
        <g id="Group" transform="translate(0.000000, 0.757359)" stroke="#20242B" stroke-width="1.5">
            <g id="Stroke" transform="translate(0.750000, 0.750000)">
                <path d="M3.19744231e-14,22.5000001 L22.5,22.5000001 M5.25000002,16.5000001 L2.25000001,16.5000001 C1.83578645,16.5000001 1.50000001,16.8357865 1.50000001,17.2500001 L1.50000001,22.5000001 L6.00000001,22.5000001 L6.00000001,17.2500001 C6.00000001,16.8357865 5.66421359,16.5000001 5.25000002,16.5000001 Z M12.7500001,9.00000004 L9.75000004,9.00000004 C9.33578648,9.00000004 9.00000004,9.33578648 9.00000004,9.75000004 L9.00000004,22.5 L13.5,22.5 L13.5,9.75000004 C13.5,9.33578648 13.1642136,9.00000004 12.7500001,9.00000004 Z M20.2500001,12.0000001 L17.2500001,12.0000001 C16.8357865,12.0000001 16.5000001,12.3357865 16.5000001,12.7500001 L16.5000001,22.5000001 L21.0000001,22.5000001 L21.0000001,12.7500001 C21.0000001,12.3357865 20.6642136,12.0000001 20.2500001,12.0000001 Z M22.5000001,4.5 L22.5000001,9.23705556e-14 L18.0000001,9.23705556e-14 M22.5,4.17443857e-14 L17.4500001,5.05000002 C16.8648956,5.63525922 16.0056415,5.85189725 15.2130001,5.61400002 L9.50400004,4.08800002 C8.72783824,3.88084202 7.90010217,4.1030198 7.33200003,4.67100002 L1.50000001,10.503" id="Adjust-Stroke-Width"></path>
            </g>
        </g>
    </g>
</svg>